<svg xmlns="http://www.w3.org/2000/svg" width="547" height="368" viewBox="0 0 547 368" fill="none">
<path d="M167.301 256.642C139.265 313.071 86.8012 348.731 66.5677 347.089C46.3343 345.447 18.3309 321.504 20.6441 279.441C25.2038 196.527 94.2319 58.0318 104.443 49.4994C114.655 40.967 123.23 35.4218 175.673 34.9751C216.695 34.6256 230.872 32.7137 228.015 60.928" stroke="black"/>
<path d="M318.519 60.3609C318.519 60.3609 319.254 68.4648 311.72 68.4543C304.186 68.4438 241.371 68.4909 233.837 68.4804C226.303 68.4699 228.11 60.2345 228.11 60.2345" stroke="black"/>
<path d="M241.291 228.428C241.291 254.697 219.997 275.993 193.729 275.993C167.461 275.993 146.167 254.697 146.167 228.428C146.167 202.159 167.461 180.863 193.729 180.863C219.997 180.863 241.291 202.159 241.291 228.428Z" fill="white" stroke="black" stroke-width="0.873299"/>
<path d="M233.294 137.714C233.294 180.473 198.631 215.135 155.872 215.135C113.113 215.135 78.45 180.473 78.45 137.714C78.45 94.9548 113.113 60.2919 155.872 60.2919C198.631 60.2919 233.294 94.9548 233.294 137.714Z" fill="white" stroke="black" stroke-width="1.15627"/>
<path d="M216.498 187.759C213.341 185.897 213.341 185.897 213.341 185.897" stroke="white"/>
<path d="M148.796 215.995L149.198 213.629" stroke="white"/>
<path d="M215.188 187.643H149.652V222.108H215.188V187.643Z" fill="white" stroke="white"/>
<path d="M379.437 256.642C407.472 313.071 459.936 348.731 480.169 347.089C500.403 345.447 528.406 321.504 526.093 279.441C521.533 196.527 452.505 58.0318 442.294 49.4994C432.082 40.967 423.508 35.4218 371.064 34.9751C330.042 34.6256 315.865 32.7137 318.722 60.928" stroke="black"/>
<path d="M305.446 228.428C305.446 254.697 326.74 275.993 353.008 275.993C379.276 275.993 400.57 254.697 400.57 228.428C400.57 202.159 379.276 180.863 353.008 180.863C326.74 180.863 305.446 202.159 305.446 228.428Z" fill="white" stroke="black" stroke-width="0.873299"/>
<path d="M313.443 137.714C313.443 180.473 348.106 215.135 390.865 215.135C433.624 215.135 468.287 180.473 468.287 137.714C468.287 94.9548 433.624 60.2919 390.865 60.2919C348.106 60.2919 313.443 94.9548 313.443 137.714Z" fill="white" stroke="black" stroke-width="1.15627"/>
<path d="M330.24 187.759C333.396 185.897 333.396 185.897 333.396 185.897" stroke="white"/>
<path d="M397.941 215.995L397.539 213.629" stroke="white"/>
<path d="M396.98 187.764H331.284V221.4H396.98V187.764Z" fill="white" stroke="white" stroke-width="0.987663"/>
<path d="M240.724 234.786L305.545 234.876" stroke="black"/>
<path d="M204.524 136.249C204.524 163.53 182.408 185.646 155.126 185.646C127.845 185.646 105.729 163.53 105.729 136.249C105.729 108.967 127.845 86.8511 155.126 86.8511C182.408 86.8511 204.524 108.967 204.524 136.249Z" fill="white" stroke="black" stroke-width="1.20496"/>
<path d="M145.148 88.1665C145.148 88.1665 145.366 94.3799 145.464 97.8286C144.907 109.784 148.296 120.093 140.161 125.013C134.268 128.461 120.89 126.594 107.14 126.594" stroke="black"/>
<path d="M202.877 125.807C202.877 125.807 196.663 126.024 193.215 126.123C181.259 125.565 170.95 128.955 166.03 120.819C162.582 114.926 164.45 101.548 164.45 87.798" stroke="black"/>
<path d="M144.937 184.504C144.937 184.504 145.155 178.291 145.253 174.842C144.696 162.886 148.085 152.578 139.949 147.658C134.056 144.209 120.678 146.077 106.928 146.077" stroke="black"/>
<path d="M202.929 146.438C202.929 146.438 196.716 146.22 193.267 146.122C181.311 146.679 171.003 143.29 166.083 151.426C162.634 157.319 164.502 170.697 164.502 184.447" stroke="black"/>
<path d="M231.419 229.94C231.419 250.257 215.04 266.726 194.836 266.726C174.632 266.726 158.253 250.257 158.253 229.94C158.253 209.624 174.632 193.154 194.836 193.154C215.04 193.154 231.419 209.624 231.419 229.94Z" fill="white" stroke="black" stroke-width="1.61823" id="joystick-right"/>
<path d="M389.093 229.429C389.093 249.745 372.714 266.215 352.51 266.215C332.305 266.215 315.926 249.745 315.926 229.429C315.926 209.113 332.305 192.643 352.51 192.643C372.714 192.643 389.093 209.113 389.093 229.429Z" fill="white" stroke="black" stroke-width="1.61823" id="joystick-left"/>
<path d="M301.66 113.975H291.785C288.891 113.975 286.545 116.321 286.545 119.215V119.986C286.545 122.88 288.891 125.226 291.785 125.226H301.66C304.554 125.226 306.9 122.88 306.9 119.986V119.215C306.9 116.321 304.554 113.975 301.66 113.975Z" fill="white" stroke="black" stroke-linejoin="round" id="right"/>
<path d="M291.686 116.487L291.686 122.927L302.293 119.707L291.686 116.487Z" stroke="black" stroke-linejoin="round"/>
<path d="M255.174 114.227H245.299C242.405 114.227 240.059 116.573 240.059 119.467V120.238C240.059 123.132 242.405 125.478 245.299 125.478H255.174C258.068 125.478 260.415 123.132 260.415 120.238V119.467C260.415 116.573 258.068 114.227 255.174 114.227Z" fill="white" stroke="black" stroke-linejoin="round" id="left"/>
<path d="M255.005 116.74L255.005 123.18L244.399 119.96L255.005 116.74Z" stroke="black" stroke-linejoin="round"/>
<path d="M342.42 34.697V26.3934L347.51 20.5006L402.51 20.6791L407.331 26.3934V36.3041" stroke="black" fill="#ffffff00" id="bumper-right"/>
<path d="M207.41 34.8357V26.5322L202.32 20.6393L147.32 20.8179L142.499 26.5322V36.4429" stroke="black" fill="#ffffff00" id="bumper-left"/>
<circle cx="390" cy="99" r="20" fill="#FF7F2A" id="y"/>
<circle cx="348" cy="138" r="20" fill="#00CCFF" id="x"/>
<circle cx="430" cy="138" r="20" fill="#FF2A2A" id="b"/>
<circle cx="390" cy="174" r="20" fill="#00FF66" id="a"/>
<path d="M154.5 94L161.861 100H147.139L154.5 94Z" fill="#D9D9D9" id="dpad-up"/>
<path d="M155.5 181L148.139 175H162.861L155.5 181Z" fill="#D9D9D9" id="dpad-down"/>
<path d="M112 137.5L118 130.139V144.861L112 137.5Z" fill="#D9D9D9" id="dpad-left"/>
<path d="M199 136.5L193 143.861V129.139L199 136.5Z" fill="#D9D9D9" id="dpad-right"/>
</svg>
