<svg xmlns="http://www.w3.org/2000/svg" width="1092" height="1194" viewBox="0 0 1092 1194" fill="none">
<path d="M538.933 49.3494C559.595 49.3494 578.063 49.8868 594.573 50.9094C586.601 -3.86791 539.909 3.30943 539.909 3.30943C500.055 3.30943 490.019 36.8174 487.571 50.6641C502.984 49.8041 520.029 49.3494 538.933 49.3494Z" stroke="#E1E1E1" stroke-width="5.33333" stroke-miterlimit="10"/>
<path d="M867.88 490.422L792.542 558.912V739.117C792.542 752.532 799.65 761.505 807.394 761.505C810.279 761.505 813.252 760.26 815.98 757.532C826.026 747.488 859.51 719.025 866.206 708.981C872.903 698.936 874.576 695.588 874.576 673.822C874.576 659.434 879.699 643.585 884.621 632.56V531.516L867.88 513.1V490.422ZM865.214 496.45V513.1V514.132L865.907 514.894L881.955 532.548V631.994C878.752 639.264 871.91 656.796 871.91 673.822C871.91 694.818 870.397 697.888 863.987 707.502C859.657 713.996 843.079 729.038 829.759 741.124C823.136 747.134 817.418 752.324 814.095 755.646C812.006 757.734 809.688 758.838 807.394 758.838C801.532 758.838 795.208 751.298 795.208 739.117V560.092L865.214 496.45Z" fill="#E1E1E1"/>
<path d="M867.88 327.813C833.596 357.384 802.183 384.592 799.239 387.536C792.542 394.232 792.542 409.3 792.542 409.3V548.913L867.88 480.951V327.813ZM865.214 333.636V479.765L795.208 542.917V409.303C795.214 405.412 796.288 394.257 801.124 389.421C802.764 387.781 815.328 376.676 865.214 333.636Z" fill="#E1E1E1"/>
<path d="M938.196 426.499L874.577 484.334V508.078L891.318 526.494V620.248C893.904 616.802 923.988 588.96 953.264 562.064V472.919L938.196 454.503V426.499ZM935.529 432.527V454.503V455.455L936.132 456.192L950.597 473.871V560.894C920.328 588.707 902.101 605.686 893.985 613.647V526.494V525.463L893.292 524.699L877.244 507.047V485.514L935.529 432.527Z" fill="#E1E1E1"/>
<path d="M1012.75 358.718L944.893 420.412V449.481L959.96 469.572V555.916C985.069 532.872 1007.95 511.992 1010.19 509.752C1015.21 504.729 1023.58 498.032 1021.91 471.245C1022.53 430.441 1018.45 391.99 1012.75 358.718ZM1010.93 363.978C1016.97 400.829 1019.77 436.88 1019.24 471.204L1019.24 471.308L1019.24 471.412C1020.76 495.61 1014.03 502.23 1009.11 507.062C1008.83 507.336 1008.56 507.604 1008.3 507.866C1006.79 509.38 994.989 520.19 980.052 533.877C974.629 538.846 968.729 544.253 962.626 549.85V469.572V468.682L962.093 467.97L947.56 448.592V421.59L1010.93 363.978Z" fill="#E1E1E1"/>
<path d="M973.545 242.429C966.725 242.429 959.961 248.578 959.961 248.578C959.961 248.578 954.203 253.522 944.893 261.523V411.478L1010.67 352.145C1001.32 302.583 988.962 266.237 985.073 253.601C982.435 245.027 977.978 242.429 973.545 242.429ZM973.545 245.095C975.059 245.095 979.666 245.095 982.525 254.385C982.983 255.877 983.561 257.699 984.237 259.834C989.239 275.634 999.587 308.319 1007.77 351.169L947.559 405.481V262.747C956.322 255.218 961.698 250.601 961.698 250.601L961.726 250.577L961.754 250.551C963.423 249.034 968.795 245.095 973.545 245.095Z" fill="#E1E1E1"/>
<path d="M938.196 267.28C921.649 281.504 897.842 301.981 874.577 322.04V474.91L938.196 417.52V267.28ZM935.529 273.089V416.333L877.244 468.913V323.261C898.388 305.034 919.893 286.532 935.529 273.089Z" fill="#E1E1E1"/>
<path d="M154.674 426.499V454.503L139.606 472.919V562.064C168.882 588.96 198.966 616.802 201.552 620.248V526.494L218.294 508.078V484.334L154.674 426.499ZM157.341 432.527L215.628 485.514V507.047L199.578 524.699L198.885 525.463V526.494V613.647C190.769 605.686 172.542 588.707 142.273 560.894V473.871L156.738 456.192L157.341 455.455V454.503V432.527Z" fill="#E1E1E1"/>
<path d="M80.1156 358.718C74.4169 391.99 70.3369 430.441 70.9649 471.245C69.2903 498.032 77.6622 504.729 82.6836 509.752C84.9236 511.992 107.801 532.872 132.91 555.916V469.572L147.977 449.481V420.412L80.1156 358.718ZM81.9382 363.978L145.31 421.59V448.592L130.777 467.97L130.244 468.682V469.572V549.85C124.142 544.253 118.242 538.848 112.82 533.878C97.8822 520.19 86.0836 509.38 84.5702 507.866C84.3076 507.604 84.0356 507.337 83.7569 507.062C78.8436 502.23 72.1142 495.612 73.6262 471.412L73.6329 471.308L73.6316 471.204C73.1036 436.88 75.8969 400.828 81.9382 363.978Z" fill="#E1E1E1"/>
<path d="M119.325 242.429C114.892 242.429 110.436 245.027 107.797 253.601C103.908 266.237 91.5548 302.583 82.2041 352.145L147.977 411.478V261.523C138.668 253.522 132.909 248.578 132.909 248.578C132.909 248.578 126.145 242.429 119.325 242.429ZM119.325 246.429C123.607 246.429 128.645 250.122 130.219 251.538L130.261 251.575L130.304 251.613C130.304 251.613 135.491 256.066 143.977 263.359V402.482L86.5548 350.681C94.6961 308.273 104.939 275.922 109.905 260.237C110.581 258.098 111.16 256.273 111.62 254.777C114.188 246.429 118.055 246.429 119.325 246.429Z" fill="#E1E1E1"/>
<path d="M154.674 267.28V417.52L218.294 474.91V322.04C195.028 301.981 171.222 281.504 154.674 267.28ZM157.341 273.089C172.973 286.528 194.476 305.028 215.628 323.261V468.913L157.341 416.333V273.089Z" fill="#E1E1E1"/>
<path d="M538.933 49.3493C348.105 49.3493 343.669 95.0574 352.827 147.667C361.984 200.276 377.597 432.739 538.933 432.739C700.269 432.739 715.881 200.276 725.04 147.667C734.196 95.0574 729.761 49.3493 538.933 49.3493Z" stroke="#E1E1E1" stroke-width="5.33333" stroke-miterlimit="10"/>
<path d="M784.342 313.034C776.131 267.293 733.415 251.133 708.567 245.556C701.636 275.764 691.688 308.326 676.851 337.702C665.14 396.39 656.046 383.988 638.687 467.061C615.248 579.23 652.08 549.096 685.564 488.825C719.048 428.554 796.062 378.328 784.342 313.034Z" stroke="#E1E1E1" stroke-width="4" stroke-miterlimit="10"/>
<path d="M703.519 461.778C696.832 470.618 690.687 479.603 685.564 488.824C652.08 549.095 615.248 579.231 638.687 467.06C656.045 383.988 665.14 396.39 676.851 337.703C650.256 390.36 607.952 432.739 539.073 432.739C473.919 432.739 432.539 394.82 405.743 346.152C418.442 382.33 432.345 420.14 439.459 433.576C454.525 462.038 471.268 502.218 467.92 523.982C464.572 545.747 454.351 554.234 444.481 539.05C430.716 517.875 403.965 423.951 388.78 351.967C363.828 354.639 261.2 373.811 243.578 508.915C223.488 662.94 272.04 706.47 315.568 734.93C359.097 763.392 481.314 776.786 560 776.786C638.687 776.786 657.103 744.975 678.868 711.491C700.632 678.008 712.352 606.018 715.7 564.163C719.048 522.308 703.98 462.038 703.98 462.038C703.98 462.038 703.819 461.946 703.519 461.778Z" stroke="#E1E1E1" stroke-width="4" stroke-miterlimit="10"/>
<path d="M405.743 346.152C393.656 324.2 384.543 300.068 377.552 276.232C376.904 323.331 424.45 508.233 444.48 539.049C454.35 554.233 464.571 545.747 467.919 523.983C471.268 502.217 454.526 462.037 439.458 433.576C432.346 420.14 418.44 382.329 405.743 346.152Z" stroke="#E1E1E1" stroke-width="4" stroke-miterlimit="10"/>
<path d="M518.843 232.674C518.843 221.578 527.837 212.583 538.933 212.583C550.028 212.583 559.023 221.578 559.023 232.674C559.023 243.768 550.028 252.763 538.933 252.763C527.837 252.763 518.843 243.768 518.843 232.674Z" stroke="#E1E1E1" stroke-width="4" stroke-miterlimit="10"/>
<path d="M463.595 232.674C463.595 191.064 497.324 157.335 538.933 157.335C580.541 157.335 614.272 191.064 614.272 232.674C614.272 274.282 580.541 308.012 538.933 308.012C497.324 308.012 463.595 274.282 463.595 232.674Z" stroke="#E1E1E1" stroke-width="4" stroke-miterlimit="10"/>
<path d="M473.64 232.674C473.64 196.614 502.873 167.38 538.933 167.38C574.994 167.38 604.226 196.614 604.226 232.674C604.226 268.734 574.994 297.967 538.933 297.967C502.873 297.967 473.64 268.734 473.64 232.674Z" stroke="#E1E1E1" stroke-width="2.66667" stroke-miterlimit="10" id="stick-hat"/>
<path d="M692.959 162.357C679.566 165.705 644.407 165.705 637.711 192.493C631.014 219.28 647.756 321.405 667.847 318.057C674.43 316.96 683.17 310.458 691.946 302.228C714.186 241.206 720.342 176.226 724.712 149.624C712.092 155.292 698.978 160.853 692.959 162.357Z" stroke="#E1E1E1" stroke-width="4" stroke-miterlimit="10" fill="#ffffff01" id="stick-button-right"/>
<path d="M440.156 192.493C433.46 165.706 398.301 165.706 384.908 162.357C378.889 160.853 365.775 155.293 353.155 149.625C357.524 176.227 363.68 241.206 385.92 302.227C394.697 310.458 403.437 316.961 410.02 318.057C430.111 321.406 446.852 219.279 440.156 192.493Z" stroke="#E1E1E1" stroke-width="4" stroke-miterlimit="10" fill="#ffffff01"  id="stick-button-left"/>
<path d="M538.933 432.739C576.552 432.739 606.243 420.093 629.781 400.043L614.272 393.395L555.675 343.17H538.933H522.191L463.595 393.395L448.085 400.043C471.624 420.093 501.315 432.739 538.933 432.739Z" stroke="#E1E1E1" stroke-width="4" stroke-miterlimit="10" id="stick-button-bottom"/>
<path d="M224.991 327.814V480.951L246.52 500.372C254.683 450.275 274.905 417.015 297.939 394.963C296.96 392.164 295.587 389.491 293.632 387.536C290.688 384.592 259.275 357.384 224.991 327.814ZM227.657 333.636C277.541 376.676 290.107 387.782 291.747 389.422C292.919 390.594 293.948 392.222 294.817 394.274C269.171 419.398 252.329 453.31 244.713 495.152L227.657 479.766V333.636Z" fill="#E1E1E1"/>
<path d="M224.991 490.422V513.1L208.248 531.516V632.56C213.172 643.585 218.295 659.434 218.295 673.822C218.295 695.588 219.968 698.936 226.664 708.981C233.361 719.025 266.845 747.488 276.891 757.532C279.617 760.26 282.592 761.505 285.477 761.505C293.221 761.505 300.329 752.533 300.329 739.117V722.974C262.345 693.418 227.749 643.1 245.252 508.914C245.255 508.893 245.259 508.872 245.261 508.85L224.991 490.422ZM227.657 496.45L242.437 509.888C224.881 646.648 262.427 696.47 297.663 724.273V739.117C297.663 751.298 291.337 758.838 285.477 758.838C283.183 758.838 280.864 757.734 278.776 755.646C275.453 752.324 269.735 747.134 263.112 741.125C249.791 729.038 233.213 713.996 228.883 707.502C222.473 697.888 220.961 694.818 220.961 673.822C220.961 656.796 214.117 639.264 210.915 631.994V532.548L226.963 514.894L227.657 514.132V513.1V496.45Z" fill="#E1E1E1"/>
<path d="M552.346 432.181C551.089 432.284 549.806 432.347 548.532 432.423C548.122 432.447 547.722 432.485 547.312 432.507C549.004 432.421 550.686 432.319 552.346 432.181Z" fill="#E1E1E1"/>
<path d="M560.178 431.307C560.113 431.316 560.045 431.322 559.981 431.331C559.863 431.346 559.75 431.368 559.633 431.384C559.815 431.36 559.995 431.332 560.178 431.307Z" fill="#E1E1E1"/>
<path d="M565.526 430.476C564.667 430.626 563.787 430.74 562.92 430.876C562.326 430.971 561.743 431.086 561.143 431.171C562.616 430.96 564.079 430.73 565.526 430.476Z" fill="#E1E1E1"/>
<path d="M567.387 430.137C567.128 430.186 566.86 430.219 566.601 430.267C566.345 430.314 566.097 430.374 565.84 430.419C566.357 430.327 566.873 430.234 567.387 430.137Z" fill="#E1E1E1"/>
<path d="M526.443 432.237C527.42 432.314 528.412 432.367 529.402 432.427C529.379 432.426 529.358 432.425 529.335 432.423C528.368 432.365 527.399 432.311 526.443 432.237Z" fill="#E1E1E1"/>
<path d="M559.008 431.47C558.004 431.598 556.976 431.689 555.961 431.8C555.454 431.854 554.96 431.925 554.452 431.976C555.982 431.826 557.505 431.664 559.008 431.47Z" fill="#E1E1E1"/>
<path d="M520.498 431.646C521.146 431.724 521.798 431.794 522.45 431.863C522.268 431.843 522.089 431.819 521.906 431.799C521.437 431.748 520.965 431.702 520.498 431.646Z" fill="#E1E1E1"/>
<path d="M1081.85 406.789C1071.81 329.777 1029.95 269.506 1003.17 237.695C976.38 205.886 973.031 205.886 959.637 204.211C946.244 202.538 919.457 202.538 919.457 202.538C919.457 202.538 850.319 160.897 726.747 136.354C726.293 140.079 725.703 143.854 725.04 147.666C724.932 148.286 724.823 148.955 724.712 149.623C723.675 155.937 722.533 164.429 721.104 174.498C721.069 174.745 721.036 174.986 721 175.234C720.869 176.159 720.733 177.102 720.597 178.053C720.515 178.626 720.433 179.193 720.349 179.775C720.255 180.423 720.159 181.086 720.061 181.746C719.932 182.629 719.804 183.509 719.671 184.41C719.633 184.663 719.593 184.925 719.556 185.179C718.073 195.162 716.297 206.282 714.097 218.131C714.095 218.149 714.092 218.165 714.088 218.182C713.777 219.855 713.457 221.545 713.128 223.247C713.112 223.33 713.096 223.413 713.08 223.497C712.755 225.179 712.419 226.875 712.076 228.585C712.059 228.671 712.041 228.758 712.023 228.846C711.68 230.554 711.325 232.274 710.963 234.005C710.944 234.094 710.925 234.182 710.907 234.271C710.539 236.021 710.161 237.779 709.773 239.55C709.764 239.599 709.752 239.649 709.741 239.698C697.441 295.821 674.949 361.569 629.781 400.042C629.779 400.043 629.777 400.046 629.775 400.047C625.787 403.445 621.605 406.611 617.253 409.558C616.743 409.903 616.241 410.263 615.725 410.603C614.708 411.271 613.665 411.909 612.629 412.551C611.949 412.973 611.277 413.403 610.589 413.814C609.607 414.398 608.604 414.955 607.604 415.515C606.831 415.949 606.064 416.387 605.281 416.806C604.309 417.326 603.32 417.821 602.331 418.318C601.491 418.741 600.652 419.163 599.8 419.57C598.827 420.033 597.84 420.475 596.852 420.917C595.952 421.317 595.051 421.715 594.137 422.098C593.161 422.507 592.173 422.901 591.181 423.289C590.225 423.662 589.264 424.027 588.293 424.381C587.309 424.738 586.319 425.085 585.32 425.421C584.308 425.762 583.287 426.09 582.26 426.407C581.269 426.715 580.275 427.015 579.269 427.302C578.2 427.606 577.117 427.893 576.031 428.173C575.036 428.429 574.04 428.685 573.031 428.921C571.896 429.186 570.744 429.426 569.591 429.665C568.913 429.806 568.253 429.971 567.569 430.102C619.957 420.117 654.14 382.669 676.851 337.703C691.688 308.326 701.636 275.763 708.567 245.555C733.415 251.133 776.131 267.293 784.341 313.034C794.268 368.339 740.543 412.835 703.521 461.779C703.819 461.947 703.98 462.038 703.98 462.038C703.98 462.038 719.048 522.309 715.7 564.163C712.352 606.017 700.632 678.009 678.868 711.491C657.104 744.975 638.687 776.786 560 776.786C481.313 776.786 359.097 763.393 315.568 734.93C272.04 706.469 223.488 662.941 243.577 508.914C261.2 373.815 363.824 354.641 388.779 351.967C381.937 319.533 377.449 291.569 377.555 276.71C374.42 266.065 371.709 255.481 369.351 245.171C369.348 245.161 369.347 245.15 369.344 245.141C368.931 243.333 368.528 241.537 368.136 239.747C368.119 239.669 368.101 239.59 368.084 239.511C367.701 237.761 367.327 236.021 366.964 234.29C366.943 234.189 366.921 234.087 366.9 233.985C366.541 232.273 366.191 230.57 365.849 228.879L365.781 228.538C365.441 226.851 365.111 225.177 364.789 223.513C364.771 223.414 364.752 223.315 364.732 223.215C364.409 221.537 364.092 219.871 363.785 218.219C363.773 218.158 363.763 218.095 363.751 218.034C361.575 206.307 359.816 195.301 358.344 185.402C358.293 185.062 358.241 184.714 358.191 184.377C358.061 183.499 357.937 182.647 357.811 181.789C357.713 181.115 357.613 180.438 357.517 179.775C357.437 179.217 357.359 178.675 357.28 178.125C357.136 177.125 356.993 176.133 356.855 175.161C356.832 174.998 356.811 174.841 356.787 174.678C355.347 164.53 354.197 155.974 353.155 149.623C353.045 148.955 352.935 148.286 352.827 147.666C352.197 144.053 351.635 140.471 351.189 136.935C237.485 159.226 176.116 194.167 176.116 194.167C176.116 194.167 152.677 195.841 124.216 195.841C3.67465 286.247 2 488.825 2 488.825L22.0907 535.702C22.0907 535.702 20.4161 570.859 15.3934 738.279C10.3721 905.698 152.677 1039.63 152.677 1039.63C152.677 1039.63 167.745 1078.14 172.768 1086.51C177.791 1094.88 320.097 1191.98 551.135 1191.98C782.173 1191.98 899.367 1093.21 902.715 1088.18C906.064 1083.16 916.108 1059.72 924.48 1042.98C1056.74 924.114 1068.46 793.527 1070.13 734.93C1071.81 676.334 1068.46 545.747 1068.46 545.747C1068.46 545.747 1080.18 522.309 1085.2 508.914C1090.22 495.521 1091.9 483.802 1081.85 406.789Z" stroke="#E1E1E1" stroke-width="4" stroke-miterlimit="10"/>
<path d="M514.864 430.864C515.19 430.916 515.512 430.974 515.839 431.026C515.539 430.978 515.246 430.924 514.946 430.877C514.919 430.873 514.891 430.868 514.864 430.864Z" fill="#E1E1E1"/>
<path d="M543.558 432.674C542.052 432.715 540.53 432.738 538.998 432.738C539.024 432.738 539.048 432.739 539.073 432.739C540.582 432.739 542.076 432.716 543.558 432.674ZM545.837 432.594C545.081 432.624 544.321 432.651 543.558 432.674C544.321 432.652 545.081 432.626 545.837 432.594Z" fill="#E1E1E1"/>
<path d="M586.493 1082.32H491.374C485.278 1082.32 480.337 1077.38 480.337 1071.29V919.246C480.337 913.15 485.278 908.209 491.374 908.209H586.493C592.589 908.209 597.53 913.15 597.53 919.246V1071.29C597.53 1077.38 592.589 1082.32 586.493 1082.32Z" stroke="#E1E1E1" stroke-width="4" stroke-miterlimit="10" fill="#fff" id="slider"/>
<path d="M552.466 859.658H525.679V908.209H552.466V859.658Z" stroke="#E1E1E1" stroke-width="2.66667" stroke-miterlimit="10"/>
</svg>